<svg xmlns="http://www.w3.org/2000/svg" xmlns:xlink="http://www.w3.org/1999/xlink" width="1920" zoomAndPan="magnify" viewBox="0 0 1440 1439.999935" height="1920" preserveAspectRatio="xMidYMid meet" version="1.0"><defs><clipPath id="746706c7f2"><path d="M 119 339 L 1329 339 L 1329 1278.601562 L 119 1278.601562 Z M 119 339 " clip-rule="nonzero"/></clipPath><clipPath id="309c2537da"><path d="M 119 339 L 1329 339 L 1329 1278.601562 L 119 1278.601562 Z M 119 339 " clip-rule="nonzero"/></clipPath></defs><path fill="#006fb1" d="M 163.808594 633.148438 C 254.558594 633.148438 327.617188 706.1875 327.617188 796.914062 L 327.617188 887.101562 C 327.617188 977.828125 254.558594 1050.871094 163.808594 1050.871094 C 73.058594 1050.871094 0 977.828125 0 887.101562 L 0 796.914062 C 0 706.1875 73.058594 633.148438 163.808594 633.148438 Z M 163.808594 633.148438 " fill-opacity="1" fill-rule="nonzero"/><path fill="#006fb1" d="M 1276.28125 633.148438 C 1367.03125 633.148438 1440.089844 706.1875 1440.089844 796.914062 L 1440.089844 887.101562 C 1440.089844 977.828125 1367.03125 1050.871094 1276.28125 1050.871094 C 1185.53125 1050.871094 1112.472656 977.828125 1112.472656 887.101562 L 1112.472656 796.914062 C 1112.472656 706.1875 1185.53125 633.148438 1276.28125 633.148438 Z M 1276.28125 633.148438 " fill-opacity="1" fill-rule="nonzero"/><path fill="#006fb1" d="M 515.414062 419.285156 C 515.414062 328.558594 588.472656 255.519531 679.222656 255.519531 L 769.4375 255.519531 C 860.1875 255.519531 933.246094 328.558594 933.246094 419.285156 C 933.246094 510.011719 860.1875 583.050781 769.4375 583.050781 L 679.222656 583.050781 C 588.472656 583.050781 515.414062 510.011719 515.414062 419.285156 Z M 515.414062 419.285156 " fill-opacity="1" fill-rule="nonzero"/><g clip-path="url(#746706c7f2)"><path fill="#b6e4ff" d="M 1328.664062 808.902344 C 1328.664062 1068.078125 1205.820312 1278.179688 724.332031 1278.179688 C 283.128906 1278.179688 119.996094 1068.078125 119.996094 808.902344 C 119.996094 549.722656 390.566406 339.621094 724.332031 339.621094 C 1058.09375 339.621094 1328.664062 549.722656 1328.664062 808.902344 Z M 1328.664062 808.902344 " fill-opacity="1" fill-rule="nonzero"/></g><path fill="#000f18" d="M 1208.65625 808.902344 C 1208.65625 970.085938 1110.207031 1100.753906 724.332031 1100.753906 C 370.742188 1100.753906 240.003906 970.085938 240.003906 808.902344 C 240.003906 647.714844 456.84375 517.046875 724.332031 517.046875 C 991.816406 517.046875 1208.65625 647.714844 1208.65625 808.902344 Z M 1208.65625 808.902344 " fill-opacity="1" fill-rule="nonzero"/><path fill="#e0f3ff" d="M 724.332031 502.503906 C 588.21875 502.503906 464.796875 535.570312 374.351562 590.070312 C 283.902344 644.574219 225.457031 721.789062 225.457031 808.902344 C 225.457031 893.425781 260.882812 971.992188 341.335938 1027.257812 C 421.785156 1082.523438 545.746094 1115.300781 724.332031 1115.300781 C 918.910156 1115.300781 1043 1082.683594 1119.738281 1027.042969 C 1196.480469 971.40625 1223.207031 892.457031 1223.207031 808.902344 C 1223.207031 721.789062 1164.761719 644.574219 1074.3125 590.074219 C 983.863281 535.570312 860.445312 502.503906 724.332031 502.503906 Z M 724.332031 531.59375 C 855.703125 531.59375 974.445312 563.859375 1059.289062 614.988281 C 1144.132812 666.113281 1194.105469 734.828125 1194.105469 808.902344 C 1194.105469 886.535156 1171.609375 953.503906 1102.65625 1003.496094 C 1033.703125 1053.488281 915.625 1086.207031 724.332031 1086.207031 C 549.328125 1086.207031 431.125 1053.648438 357.808594 1003.285156 C 284.496094 952.921875 254.554688 885.5625 254.554688 808.902344 C 254.554688 734.828125 304.527344 666.113281 389.371094 614.988281 C 474.214844 563.859375 592.957031 531.59375 724.332031 531.59375 Z M 724.332031 531.59375 " fill-opacity="1" fill-rule="nonzero"/><path fill="#ffbe2f" d="M 597.460938 795.921875 C 597.460938 797.363281 597.4375 798.804688 597.394531 800.242188 C 597.347656 801.683594 597.28125 803.121094 597.191406 804.554688 C 597.105469 805.992188 596.992188 807.421875 596.859375 808.847656 C 596.726562 810.273438 596.574219 811.695312 596.394531 813.109375 C 596.21875 814.523438 596.019531 815.929688 595.800781 817.328125 C 595.578125 818.726562 595.339844 820.113281 595.074219 821.496094 C 594.8125 822.875 594.527344 824.242188 594.222656 825.601562 C 593.917969 826.957031 593.589844 828.304688 593.242188 829.636719 C 592.898438 830.96875 592.53125 832.285156 592.140625 833.589844 C 591.753906 834.890625 591.347656 836.179688 590.917969 837.453125 C 590.492188 838.722656 590.046875 839.976562 589.582031 841.214844 C 589.113281 842.449219 588.628906 843.667969 588.125 844.867188 C 587.621094 846.066406 587.101562 847.246094 586.5625 848.402344 C 586.019531 849.5625 585.464844 850.695312 584.886719 851.8125 C 584.3125 852.925781 583.722656 854.019531 583.113281 855.085938 C 582.503906 856.152344 581.878906 857.199219 581.238281 858.21875 C 580.597656 859.238281 579.941406 860.230469 579.269531 861.199219 C 578.597656 862.167969 577.910156 863.109375 577.210938 864.023438 C 576.511719 864.9375 575.796875 865.824219 575.070312 866.683594 C 574.339844 867.542969 573.601562 868.375 572.847656 869.175781 C 572.09375 869.976562 571.328125 870.746094 570.550781 871.488281 C 569.773438 872.230469 568.984375 872.941406 568.1875 873.621094 C 567.386719 874.296875 566.578125 874.945312 565.757812 875.5625 C 564.9375 876.179688 564.109375 876.765625 563.273438 877.316406 C 562.433594 877.867188 561.589844 878.386719 560.738281 878.871094 C 559.882812 879.359375 559.023438 879.808594 558.152344 880.226562 C 557.285156 880.648438 556.414062 881.03125 555.535156 881.382812 C 554.65625 881.730469 553.773438 882.046875 552.882812 882.328125 C 551.992188 882.609375 551.101562 882.855469 550.203125 883.070312 C 549.308594 883.28125 548.40625 883.457031 547.503906 883.597656 C 546.605469 883.738281 545.699219 883.84375 544.796875 883.914062 C 543.890625 883.988281 542.984375 884.023438 542.078125 884.023438 C 541.171875 884.023438 540.265625 883.988281 539.359375 883.914062 C 538.453125 883.84375 537.550781 883.738281 536.648438 883.597656 C 535.746094 883.457031 534.847656 883.28125 533.953125 883.070312 C 533.054688 882.855469 532.160156 882.609375 531.273438 882.328125 C 530.382812 882.046875 529.5 881.730469 528.621094 881.382812 C 527.742188 881.03125 526.867188 880.648438 526 880.226562 C 525.132812 879.808594 524.273438 879.359375 523.421875 878.871094 C 522.566406 878.386719 521.722656 877.867188 520.882812 877.316406 C 520.046875 876.765625 519.21875 876.179688 518.398438 875.5625 C 517.578125 874.945312 516.769531 874.296875 515.96875 873.621094 C 515.171875 872.941406 514.382812 872.230469 513.605469 871.488281 C 512.828125 870.746094 512.0625 869.976562 511.308594 869.175781 C 510.554688 868.375 509.8125 867.542969 509.085938 866.683594 C 508.359375 865.824219 507.644531 864.9375 506.941406 864.023438 C 506.242188 863.109375 505.554688 862.167969 504.886719 861.199219 C 504.214844 860.230469 503.558594 859.238281 502.917969 858.21875 C 502.277344 857.199219 501.652344 856.152344 501.042969 855.085938 C 500.433594 854.019531 499.839844 852.925781 499.265625 851.8125 C 498.691406 850.695312 498.132812 849.5625 497.59375 848.402344 C 497.054688 847.246094 496.535156 846.066406 496.03125 844.867188 C 495.527344 843.667969 495.042969 842.449219 494.574219 841.214844 C 494.109375 839.976562 493.664062 838.722656 493.234375 837.453125 C 492.808594 836.179688 492.398438 834.890625 492.011719 833.589844 C 491.625 832.285156 491.257812 830.96875 490.910156 829.636719 C 490.566406 828.304688 490.238281 826.957031 489.933594 825.601562 C 489.628906 824.242188 489.34375 822.875 489.078125 821.496094 C 488.816406 820.117188 488.574219 818.726562 488.355469 817.328125 C 488.136719 815.929688 487.9375 814.523438 487.757812 813.109375 C 487.582031 811.695312 487.425781 810.273438 487.292969 808.847656 C 487.160156 807.421875 487.050781 805.992188 486.960938 804.554688 C 486.871094 803.121094 486.804688 801.683594 486.761719 800.242188 C 486.71875 798.804688 486.695312 797.363281 486.695312 795.921875 C 486.695312 794.480469 486.71875 793.039062 486.761719 791.597656 C 486.804688 790.15625 486.871094 788.71875 486.960938 787.285156 C 487.050781 785.851562 487.160156 784.417969 487.292969 782.992188 C 487.429688 781.566406 487.582031 780.148438 487.761719 778.734375 C 487.9375 777.320312 488.136719 775.914062 488.355469 774.515625 C 488.574219 773.117188 488.816406 771.726562 489.078125 770.347656 C 489.34375 768.96875 489.628906 767.597656 489.933594 766.242188 C 490.238281 764.882812 490.566406 763.539062 490.910156 762.207031 C 491.257812 760.875 491.625 759.554688 492.011719 758.253906 C 492.398438 756.949219 492.808594 755.660156 493.234375 754.390625 C 493.660156 753.117188 494.109375 751.863281 494.574219 750.628906 C 495.042969 749.390625 495.527344 748.171875 496.03125 746.972656 C 496.535156 745.777344 497.054688 744.597656 497.59375 743.4375 C 498.136719 742.28125 498.691406 741.144531 499.265625 740.03125 C 499.839844 738.914062 500.433594 737.824219 501.042969 736.753906 C 501.652344 735.6875 502.277344 734.644531 502.917969 733.625 C 503.558594 732.605469 504.214844 731.609375 504.886719 730.640625 C 505.554688 729.671875 506.242188 728.734375 506.941406 727.816406 C 507.644531 726.902344 508.359375 726.015625 509.085938 725.15625 C 509.8125 724.296875 510.554688 723.46875 511.308594 722.667969 C 512.0625 721.867188 512.828125 721.09375 513.605469 720.355469 C 514.382812 719.613281 515.171875 718.902344 515.96875 718.222656 C 516.769531 717.542969 517.578125 716.894531 518.398438 716.277344 C 519.21875 715.660156 520.046875 715.078125 520.882812 714.527344 C 521.722656 713.972656 522.566406 713.457031 523.421875 712.96875 C 524.273438 712.484375 525.132812 712.03125 526 711.613281 C 526.867188 711.195312 527.742188 710.808594 528.621094 710.460938 C 529.5 710.109375 530.382812 709.792969 531.273438 709.511719 C 532.160156 709.230469 533.054688 708.984375 533.953125 708.773438 C 534.847656 708.5625 535.746094 708.386719 536.648438 708.242188 C 537.550781 708.101562 538.453125 707.996094 539.359375 707.925781 C 540.265625 707.855469 541.171875 707.820312 542.078125 707.820312 C 542.984375 707.820312 543.890625 707.855469 544.796875 707.925781 C 545.699219 707.996094 546.601562 708.101562 547.503906 708.242188 C 548.40625 708.386719 549.304688 708.5625 550.203125 708.773438 C 551.101562 708.984375 551.992188 709.230469 552.882812 709.511719 C 553.773438 709.792969 554.65625 710.109375 555.535156 710.460938 C 556.414062 710.808594 557.285156 711.195312 558.152344 711.613281 C 559.023438 712.03125 559.882812 712.484375 560.738281 712.96875 C 561.589844 713.457031 562.433594 713.972656 563.273438 714.527344 C 564.109375 715.078125 564.9375 715.660156 565.757812 716.277344 C 566.578125 716.894531 567.386719 717.542969 568.1875 718.222656 C 568.984375 718.902344 569.773438 719.613281 570.550781 720.355469 C 571.328125 721.09375 572.09375 721.867188 572.847656 722.667969 C 573.601562 723.46875 574.339844 724.296875 575.070312 725.15625 C 575.796875 726.015625 576.507812 726.902344 577.210938 727.816406 C 577.910156 728.734375 578.597656 729.671875 579.269531 730.640625 C 579.941406 731.609375 580.597656 732.605469 581.238281 733.625 C 581.878906 734.644531 582.503906 735.6875 583.113281 736.753906 C 583.722656 737.824219 584.3125 738.914062 584.886719 740.03125 C 585.464844 741.144531 586.019531 742.28125 586.5625 743.4375 C 587.101562 744.597656 587.621094 745.777344 588.125 746.972656 C 588.628906 748.171875 589.113281 749.390625 589.582031 750.628906 C 590.046875 751.863281 590.492188 753.117188 590.917969 754.390625 C 591.347656 755.660156 591.753906 756.949219 592.140625 758.253906 C 592.53125 759.554688 592.898438 760.875 593.242188 762.207031 C 593.589844 763.539062 593.917969 764.882812 594.222656 766.238281 C 594.527344 767.597656 594.8125 768.964844 595.074219 770.347656 C 595.339844 771.726562 595.578125 773.117188 595.800781 774.515625 C 596.019531 775.914062 596.21875 777.320312 596.394531 778.734375 C 596.574219 780.148438 596.726562 781.566406 596.859375 782.992188 C 596.992188 784.417969 597.105469 785.851562 597.191406 787.285156 C 597.28125 788.71875 597.347656 790.15625 597.394531 791.597656 C 597.4375 793.039062 597.460938 794.480469 597.460938 795.921875 Z M 597.460938 795.921875 " fill-opacity="1" fill-rule="nonzero"/><path fill="#ffbe2f" d="M 953.394531 795.921875 C 953.394531 797.363281 953.371094 798.804688 953.328125 800.242188 C 953.28125 801.683594 953.214844 803.121094 953.125 804.554688 C 953.039062 805.992188 952.925781 807.421875 952.792969 808.847656 C 952.664062 810.273438 952.507812 811.695312 952.332031 813.109375 C 952.152344 814.523438 951.957031 815.929688 951.734375 817.328125 C 951.515625 818.726562 951.273438 820.113281 951.007812 821.496094 C 950.746094 822.875 950.460938 824.242188 950.15625 825.601562 C 949.851562 826.957031 949.523438 828.304688 949.179688 829.636719 C 948.832031 830.96875 948.464844 832.285156 948.074219 833.589844 C 947.6875 834.890625 947.28125 836.179688 946.855469 837.453125 C 946.425781 838.722656 945.980469 839.976562 945.515625 841.214844 C 945.046875 842.449219 944.5625 843.667969 944.058594 844.867188 C 943.558594 846.066406 943.035156 847.246094 942.496094 848.402344 C 941.957031 849.5625 941.398438 850.695312 940.824219 851.8125 C 940.246094 852.925781 939.65625 854.019531 939.046875 855.085938 C 938.4375 856.152344 937.8125 857.199219 937.171875 858.21875 C 936.53125 859.238281 935.875 860.230469 935.203125 861.199219 C 934.535156 862.167969 933.847656 863.109375 933.144531 864.023438 C 932.445312 864.9375 931.730469 865.824219 931.003906 866.683594 C 930.277344 867.542969 929.535156 868.375 928.78125 869.175781 C 928.027344 869.976562 927.261719 870.746094 926.484375 871.488281 C 925.707031 872.230469 924.917969 872.941406 924.117188 873.621094 C 923.320312 874.296875 922.511719 874.945312 921.691406 875.5625 C 920.871094 876.179688 920.042969 876.765625 919.207031 877.316406 C 918.371094 877.867188 917.523438 878.386719 916.671875 878.871094 C 915.816406 879.359375 914.957031 879.808594 914.085938 880.226562 C 913.222656 880.648438 912.347656 881.03125 911.46875 881.382812 C 910.589844 881.730469 909.707031 882.046875 908.816406 882.328125 C 907.929688 882.609375 907.035156 882.855469 906.136719 883.070312 C 905.242188 883.28125 904.339844 883.457031 903.441406 883.597656 C 902.539062 883.738281 901.632812 883.84375 900.730469 883.914062 C 899.824219 883.988281 898.917969 884.023438 898.011719 884.023438 C 897.105469 884.023438 896.199219 883.988281 895.292969 883.914062 C 894.386719 883.84375 893.484375 883.738281 892.582031 883.597656 C 891.679688 883.457031 890.78125 883.28125 889.882812 883.070312 C 888.988281 882.855469 888.097656 882.609375 887.207031 882.328125 C 886.316406 882.046875 885.433594 881.730469 884.554688 881.382812 C 883.675781 881.03125 882.804688 880.648438 881.933594 880.226562 C 881.066406 879.808594 880.207031 879.359375 879.355469 878.871094 C 878.5 878.386719 877.65625 877.867188 876.820312 877.316406 C 875.980469 876.765625 875.152344 876.179688 874.332031 875.5625 C 873.515625 874.945312 872.707031 874.296875 871.90625 873.621094 C 871.105469 872.941406 870.316406 872.230469 869.539062 871.488281 C 868.761719 870.746094 868 869.976562 867.242188 869.175781 C 866.488281 868.375 865.75 867.542969 865.023438 866.683594 C 864.292969 865.824219 863.578125 864.9375 862.875 864.023438 C 862.175781 863.109375 861.488281 862.167969 860.820312 861.199219 C 860.148438 860.230469 859.492188 859.238281 858.851562 858.21875 C 858.210938 857.199219 857.585938 856.152344 856.976562 855.085938 C 856.367188 854.019531 855.773438 852.925781 855.199219 851.8125 C 854.625 850.695312 854.070312 849.5625 853.527344 848.402344 C 852.988281 847.246094 852.46875 846.066406 851.964844 844.867188 C 851.460938 843.667969 850.976562 842.449219 850.507812 841.214844 C 850.042969 839.976562 849.597656 838.722656 849.167969 837.453125 C 848.742188 836.179688 848.335938 834.890625 847.949219 833.589844 C 847.558594 832.285156 847.191406 830.96875 846.847656 829.636719 C 846.5 828.304688 846.171875 826.957031 845.867188 825.601562 C 845.5625 824.242188 845.277344 822.875 845.011719 821.496094 C 844.75 820.117188 844.507812 818.726562 844.289062 817.328125 C 844.070312 815.929688 843.871094 814.523438 843.695312 813.109375 C 843.515625 811.695312 843.363281 810.273438 843.226562 808.847656 C 843.09375 807.421875 842.984375 805.992188 842.894531 804.554688 C 842.804688 803.121094 842.738281 801.683594 842.695312 800.242188 C 842.652344 798.804688 842.628906 797.363281 842.628906 795.921875 C 842.628906 794.480469 842.652344 793.039062 842.695312 791.597656 C 842.738281 790.15625 842.804688 788.71875 842.894531 787.285156 C 842.984375 785.851562 843.09375 784.417969 843.226562 782.992188 C 843.359375 781.566406 843.515625 780.148438 843.691406 778.734375 C 843.871094 777.320312 844.066406 775.914062 844.289062 774.515625 C 844.507812 773.117188 844.75 771.726562 845.011719 770.347656 C 845.277344 768.96875 845.558594 767.597656 845.867188 766.242188 C 846.171875 764.882812 846.496094 763.539062 846.84375 762.207031 C 847.191406 760.875 847.558594 759.554688 847.945312 758.253906 C 848.332031 756.949219 848.738281 755.660156 849.167969 754.390625 C 849.59375 753.117188 850.039062 751.863281 850.507812 750.628906 C 850.972656 749.390625 851.460938 748.171875 851.960938 746.972656 C 852.464844 745.777344 852.988281 744.597656 853.527344 743.4375 C 854.066406 742.28125 854.621094 741.144531 855.199219 740.03125 C 855.773438 738.914062 856.367188 737.824219 856.976562 736.753906 C 857.585938 735.6875 858.210938 734.644531 858.851562 733.625 C 859.492188 732.605469 860.148438 731.609375 860.820312 730.640625 C 861.488281 729.671875 862.175781 728.734375 862.875 727.816406 C 863.578125 726.902344 864.292969 726.015625 865.019531 725.15625 C 865.75 724.296875 866.488281 723.46875 867.242188 722.667969 C 867.996094 721.867188 868.761719 721.09375 869.539062 720.355469 C 870.316406 719.613281 871.105469 718.902344 871.902344 718.222656 C 872.703125 717.542969 873.511719 716.894531 874.332031 716.277344 C 875.152344 715.660156 875.980469 715.078125 876.816406 714.527344 C 877.65625 713.972656 878.5 713.457031 879.351562 712.96875 C 880.207031 712.484375 881.066406 712.03125 881.933594 711.613281 C 882.800781 711.195312 883.675781 710.808594 884.554688 710.460938 C 885.433594 710.109375 886.316406 709.792969 887.207031 709.511719 C 888.097656 709.230469 888.988281 708.984375 889.886719 708.773438 C 890.78125 708.5625 891.679688 708.386719 892.582031 708.242188 C 893.484375 708.101562 894.386719 707.996094 895.292969 707.925781 C 896.199219 707.855469 897.105469 707.820312 898.011719 707.820312 C 898.917969 707.820312 899.824219 707.855469 900.730469 707.925781 C 901.632812 707.996094 902.539062 708.101562 903.4375 708.242188 C 904.339844 708.386719 905.242188 708.5625 906.136719 708.773438 C 907.035156 708.984375 907.929688 709.230469 908.816406 709.511719 C 909.707031 709.792969 910.589844 710.109375 911.46875 710.460938 C 912.347656 710.808594 913.222656 711.195312 914.085938 711.613281 C 914.957031 712.03125 915.816406 712.484375 916.671875 712.96875 C 917.523438 713.457031 918.371094 713.972656 919.207031 714.527344 C 920.042969 715.078125 920.871094 715.660156 921.691406 716.277344 C 922.511719 716.894531 923.320312 717.542969 924.117188 718.222656 C 924.917969 718.902344 925.707031 719.613281 926.484375 720.355469 C 927.261719 721.09375 928.027344 721.867188 928.78125 722.667969 C 929.535156 723.46875 930.273438 724.296875 931.003906 725.15625 C 931.730469 726.015625 932.445312 726.902344 933.144531 727.816406 C 933.847656 728.734375 934.53125 729.671875 935.203125 730.640625 C 935.875 731.609375 936.53125 732.605469 937.171875 733.625 C 937.8125 734.644531 938.4375 735.6875 939.046875 736.753906 C 939.65625 737.824219 940.246094 738.914062 940.824219 740.03125 C 941.398438 741.144531 941.957031 742.28125 942.496094 743.4375 C 943.035156 744.597656 943.558594 745.777344 944.058594 746.972656 C 944.5625 748.171875 945.046875 749.390625 945.515625 750.628906 C 945.980469 751.863281 946.425781 753.117188 946.851562 754.390625 C 947.28125 755.660156 947.6875 756.949219 948.074219 758.253906 C 948.464844 759.554688 948.832031 760.875 949.179688 762.207031 C 949.523438 763.539062 949.851562 764.882812 950.15625 766.238281 C 950.460938 767.597656 950.746094 768.964844 951.007812 770.347656 C 951.273438 771.726562 951.515625 773.117188 951.734375 774.515625 C 951.957031 775.914062 952.152344 777.320312 952.332031 778.734375 C 952.507812 780.148438 952.664062 781.566406 952.792969 782.992188 C 952.925781 784.417969 953.039062 785.851562 953.125 787.285156 C 953.214844 788.71875 953.28125 790.15625 953.328125 791.597656 C 953.371094 793.039062 953.394531 794.480469 953.394531 795.921875 Z M 953.394531 795.921875 " fill-opacity="1" fill-rule="nonzero"/><path fill="#006fb1" d="M 720.722656 162.128906 C 595.511719 162.796875 470.484375 198.164062 360.714844 268.152344 C 141.179688 408.125 21.496094 661.816406 53.097656 920.207031 C 53.179688 920.890625 53.296875 921.566406 53.449219 922.238281 C 53.597656 922.90625 53.78125 923.570312 53.996094 924.222656 C 54.210938 924.875 54.457031 925.515625 54.734375 926.144531 C 55.011719 926.773438 55.320312 927.386719 55.660156 927.984375 C 55.996094 928.585938 56.363281 929.164062 56.757812 929.726562 C 57.15625 930.289062 57.578125 930.832031 58.027344 931.351562 C 58.476562 931.875 58.949219 932.371094 59.445312 932.847656 C 59.941406 933.320312 60.460938 933.769531 61.003906 934.191406 C 61.546875 934.617188 62.105469 935.011719 62.6875 935.382812 C 63.269531 935.75 63.863281 936.089844 64.480469 936.398438 C 65.09375 936.707031 65.71875 936.988281 66.359375 937.234375 C 67 937.484375 67.652344 937.699219 68.316406 937.882812 C 68.980469 938.070312 69.648438 938.21875 70.328125 938.339844 C 71.003906 938.457031 71.683594 938.542969 72.371094 938.59375 C 73.058594 938.644531 73.742188 938.664062 74.429688 938.644531 C 75.117188 938.628906 75.804688 938.582031 76.488281 938.496094 C 77.167969 938.414062 77.847656 938.296875 78.515625 938.148438 C 79.1875 937.996094 79.851562 937.816406 80.503906 937.601562 C 81.15625 937.386719 81.796875 937.140625 82.425781 936.859375 C 83.054688 936.582031 83.671875 936.273438 84.269531 935.9375 C 84.867188 935.597656 85.445312 935.230469 86.011719 934.835938 C 86.574219 934.441406 87.113281 934.019531 87.636719 933.570312 C 88.15625 933.121094 88.65625 932.648438 89.132812 932.152344 C 89.605469 931.652344 90.054688 931.132812 90.480469 930.59375 C 90.902344 930.050781 91.296875 929.492188 91.667969 928.910156 C 92.035156 928.328125 92.375 927.730469 92.683594 927.117188 C 92.996094 926.503906 93.273438 925.878906 93.523438 925.234375 C 93.769531 924.59375 93.988281 923.941406 94.171875 923.28125 C 94.355469 922.617188 94.503906 921.949219 94.625 921.269531 C 94.742188 920.59375 94.828125 919.910156 94.878906 919.226562 C 94.929688 918.539062 94.945312 917.851562 94.929688 917.164062 C 94.914062 916.480469 94.863281 915.792969 94.78125 915.109375 C 65.132812 672.675781 177.316406 434.878906 383.300781 303.550781 C 589.28125 172.21875 852.265625 170.8125 1059.636719 299.9375 C 1267.011719 429.0625 1381.726562 665.652344 1354.664062 908.390625 C 1354.589844 909.074219 1354.546875 909.757812 1354.535156 910.445312 C 1354.527344 911.132812 1354.554688 911.820312 1354.613281 912.503906 C 1354.671875 913.191406 1354.761719 913.871094 1354.886719 914.546875 C 1355.011719 915.222656 1355.171875 915.890625 1355.363281 916.550781 C 1355.554688 917.210938 1355.777344 917.859375 1356.03125 918.5 C 1356.289062 919.136719 1356.574219 919.761719 1356.890625 920.371094 C 1357.207031 920.980469 1357.550781 921.574219 1357.925781 922.152344 C 1358.300781 922.726562 1358.703125 923.285156 1359.132812 923.820312 C 1359.5625 924.359375 1360.015625 924.875 1360.496094 925.367188 C 1360.976562 925.859375 1361.480469 926.324219 1362.003906 926.769531 C 1362.53125 927.210938 1363.078125 927.628906 1363.644531 928.015625 C 1364.210938 928.40625 1364.796875 928.765625 1365.398438 929.097656 C 1366 929.429688 1366.617188 929.730469 1367.25 930.003906 C 1367.882812 930.273438 1368.527344 930.511719 1369.183594 930.71875 C 1369.835938 930.929688 1370.5 931.105469 1371.175781 931.246094 C 1371.84375 931.390625 1372.523438 931.5 1373.207031 931.574219 C 1373.890625 931.652344 1374.578125 931.695312 1375.265625 931.703125 C 1375.953125 931.710938 1376.636719 931.6875 1377.324219 931.628906 C 1378.007812 931.570312 1378.691406 931.476562 1379.367188 931.351562 C 1380.042969 931.226562 1380.710938 931.066406 1381.371094 930.875 C 1382.03125 930.6875 1382.679688 930.460938 1383.320312 930.207031 C 1383.957031 929.953125 1384.582031 929.667969 1385.195312 929.351562 C 1385.804688 929.035156 1386.398438 928.6875 1386.972656 928.316406 C 1387.550781 927.941406 1388.109375 927.539062 1388.644531 927.109375 C 1389.183594 926.679688 1389.695312 926.226562 1390.191406 925.746094 C 1390.679688 925.265625 1391.148438 924.761719 1391.589844 924.238281 C 1392.035156 923.710938 1392.453125 923.164062 1392.839844 922.597656 C 1393.230469 922.03125 1393.59375 921.445312 1393.925781 920.84375 C 1394.253906 920.242188 1394.558594 919.625 1394.828125 918.992188 C 1395.101562 918.363281 1395.339844 917.71875 1395.546875 917.0625 C 1395.753906 916.40625 1395.929688 915.742188 1396.074219 915.070312 C 1396.21875 914.398438 1396.328125 913.71875 1396.402344 913.035156 C 1425.246094 654.324219 1302.859375 401.925781 1081.839844 264.304688 C 971.328125 195.492188 845.933594 161.460938 720.722656 162.128906 Z M 720.722656 162.128906 " fill-opacity="1" fill-rule="nonzero"/><path fill="#006fb1" d="M 77.566406 753.578125 C 76.886719 753.460938 76.207031 753.375 75.519531 753.324219 C 74.835938 753.269531 74.148438 753.253906 73.460938 753.269531 C 72.773438 753.285156 72.089844 753.332031 71.40625 753.417969 C 70.726562 753.5 70.046875 753.617188 69.375 753.765625 C 68.703125 753.914062 68.042969 754.097656 67.386719 754.3125 C 66.734375 754.527344 66.09375 754.773438 65.464844 755.050781 C 64.835938 755.328125 64.222656 755.632812 63.621094 755.972656 C 63.023438 756.308594 62.441406 756.675781 61.878906 757.070312 C 61.316406 757.464844 60.773438 757.886719 60.253906 758.335938 C 59.730469 758.785156 59.234375 759.257812 58.757812 759.753906 C 58.28125 760.25 57.832031 760.769531 57.410156 761.308594 C 56.984375 761.851562 56.589844 762.414062 56.222656 762.992188 C 55.851562 763.574219 55.511719 764.167969 55.203125 764.78125 C 54.890625 765.398438 54.613281 766.023438 54.363281 766.664062 C 54.113281 767.304688 53.898438 767.957031 53.714844 768.621094 C 53.527344 769.28125 53.375 769.953125 53.257812 770.628906 C 53.257812 770.628906 33.496094 884.761719 110.175781 996.949219 C 186.855469 1109.136719 358.089844 1216.945312 724.332031 1216.945312 C 725.019531 1216.945312 725.703125 1216.910156 726.390625 1216.84375 C 727.074219 1216.777344 727.753906 1216.675781 728.429688 1216.542969 C 729.101562 1216.410156 729.769531 1216.242188 730.425781 1216.042969 C 731.085938 1215.84375 731.734375 1215.609375 732.367188 1215.347656 C 733.003906 1215.085938 733.625 1214.792969 734.230469 1214.46875 C 734.835938 1214.144531 735.425781 1213.789062 735.996094 1213.410156 C 736.566406 1213.027344 737.117188 1212.617188 737.652344 1212.179688 C 738.183594 1211.746094 738.691406 1211.285156 739.175781 1210.796875 C 739.664062 1210.3125 740.125 1209.804688 740.5625 1209.269531 C 740.996094 1208.738281 741.40625 1208.1875 741.789062 1207.617188 C 742.171875 1207.046875 742.523438 1206.457031 742.847656 1205.851562 C 743.171875 1205.242188 743.464844 1204.621094 743.730469 1203.988281 C 743.992188 1203.351562 744.222656 1202.707031 744.421875 1202.046875 C 744.621094 1201.390625 744.789062 1200.722656 744.925781 1200.050781 C 745.058594 1199.375 745.160156 1198.695312 745.226562 1198.011719 C 745.292969 1197.328125 745.328125 1196.640625 745.328125 1195.953125 C 745.328125 1195.265625 745.292969 1194.582031 745.226562 1193.898438 C 745.160156 1193.214844 745.058594 1192.535156 744.925781 1191.859375 C 744.789062 1191.183594 744.625 1190.519531 744.425781 1189.859375 C 744.226562 1189.203125 743.992188 1188.554688 743.730469 1187.921875 C 743.46875 1187.285156 743.175781 1186.664062 742.847656 1186.058594 C 742.523438 1185.453125 742.171875 1184.863281 741.789062 1184.292969 C 741.410156 1183.71875 741 1183.167969 740.5625 1182.636719 C 740.128906 1182.105469 739.667969 1181.597656 739.179688 1181.109375 C 738.695312 1180.625 738.1875 1180.164062 737.65625 1179.726562 C 737.125 1179.289062 736.570312 1178.882812 736 1178.5 C 735.425781 1178.117188 734.835938 1177.765625 734.230469 1177.441406 C 733.625 1177.117188 733.003906 1176.820312 732.367188 1176.558594 C 731.734375 1176.296875 731.085938 1176.0625 730.429688 1175.863281 C 729.769531 1175.664062 729.101562 1175.5 728.429688 1175.363281 C 727.753906 1175.230469 727.074219 1175.128906 726.390625 1175.0625 C 725.707031 1174.996094 725.019531 1174.960938 724.332031 1174.960938 C 366.242188 1174.960938 212.28125 1071.921875 144.847656 973.261719 C 77.414062 874.601562 94.625 777.878906 94.625 777.878906 C 94.742188 777.203125 94.828125 776.519531 94.878906 775.835938 C 94.929688 775.148438 94.949219 774.464844 94.933594 773.777344 C 94.917969 773.089844 94.867188 772.402344 94.785156 771.722656 C 94.703125 771.039062 94.585938 770.363281 94.4375 769.691406 C 94.289062 769.019531 94.105469 768.359375 93.890625 767.703125 C 93.675781 767.050781 93.429688 766.410156 93.152344 765.78125 C 92.875 765.152344 92.566406 764.539062 92.226562 763.941406 C 91.890625 763.339844 91.523438 762.761719 91.128906 762.195312 C 90.730469 761.632812 90.3125 761.09375 89.863281 760.570312 C 89.414062 760.050781 88.941406 759.550781 88.445312 759.078125 C 87.945312 758.601562 87.425781 758.152344 86.886719 757.726562 C 86.34375 757.304688 85.785156 756.90625 85.203125 756.539062 C 84.625 756.171875 84.027344 755.832031 83.414062 755.519531 C 82.800781 755.210938 82.171875 754.929688 81.53125 754.683594 C 80.890625 754.433594 80.238281 754.21875 79.574219 754.03125 C 78.914062 753.847656 78.242188 753.695312 77.566406 753.578125 Z M 77.566406 753.578125 " fill-opacity="1" fill-rule="nonzero"/><path fill="#006fb1" d="M 663.246094 1137.921875 L 785.417969 1137.921875 C 815.785156 1137.921875 840.230469 1162.359375 840.230469 1192.71875 C 840.230469 1223.074219 815.785156 1247.515625 785.417969 1247.515625 L 663.246094 1247.515625 C 632.878906 1247.515625 608.433594 1223.074219 608.433594 1192.71875 C 608.433594 1162.359375 632.878906 1137.921875 663.246094 1137.921875 Z M 663.246094 1137.921875 " fill-opacity="1" fill-rule="nonzero"/><path fill="#ffbe2f" d="M 665.429688 934.667969 C 663.828125 935.019531 662.351562 935.667969 661.003906 936.609375 C 659.65625 937.546875 658.539062 938.710938 657.652344 940.097656 C 657.214844 940.78125 656.847656 941.503906 656.550781 942.261719 C 656.253906 943.019531 656.035156 943.796875 655.894531 944.597656 C 655.75 945.398438 655.6875 946.207031 655.703125 947.019531 C 655.722656 947.832031 655.816406 948.636719 655.992188 949.433594 C 656.167969 950.226562 656.417969 950.996094 656.742188 951.742188 C 657.070312 952.488281 657.46875 953.191406 657.933594 953.859375 C 658.398438 954.527344 658.925781 955.144531 659.511719 955.707031 C 660.097656 956.269531 660.734375 956.769531 661.421875 957.207031 C 661.421875 957.207031 719.578125 993.390625 786.410156 957.695312 C 787.125 957.3125 787.796875 956.863281 788.425781 956.34375 C 789.054688 955.828125 789.628906 955.257812 790.144531 954.628906 C 790.660156 954 791.109375 953.328125 791.492188 952.609375 C 791.875 951.890625 792.1875 951.144531 792.421875 950.367188 C 792.660156 949.585938 792.816406 948.792969 792.898438 947.984375 C 792.976562 947.175781 792.976562 946.363281 792.898438 945.554688 C 792.820312 944.746094 792.660156 943.953125 792.425781 943.171875 C 792.1875 942.394531 791.878906 941.648438 791.496094 940.929688 C 791.113281 940.210938 790.664062 939.539062 790.148438 938.910156 C 789.632812 938.28125 789.058594 937.710938 788.429688 937.195312 C 787.800781 936.679688 787.125 936.226562 786.410156 935.84375 C 785.691406 935.460938 784.941406 935.152344 784.164062 934.914062 C 783.386719 934.679688 782.59375 934.519531 781.785156 934.441406 C 780.972656 934.359375 780.164062 934.359375 779.355469 934.441406 C 778.542969 934.519531 777.75 934.679688 776.972656 934.914062 C 776.191406 935.148438 775.445312 935.460938 774.726562 935.84375 C 719.015625 965.601562 674.769531 936.328125 674.769531 936.328125 C 673.382812 935.445312 671.882812 934.859375 670.265625 934.570312 C 668.648438 934.28125 667.035156 934.316406 665.429688 934.667969 Z M 665.429688 934.667969 " fill-opacity="1" fill-rule="nonzero"/><path fill="#006fb1" d="M 163.808594 633.148438 C 254.558594 633.148438 327.617188 706.1875 327.617188 796.914062 L 327.617188 887.101562 C 327.617188 977.828125 254.558594 1050.871094 163.808594 1050.871094 C 73.058594 1050.871094 0 977.828125 0 887.101562 L 0 796.914062 C 0 706.1875 73.058594 633.148438 163.808594 633.148438 Z M 163.808594 633.148438 " fill-opacity="1" fill-rule="nonzero"/><path fill="#006fb1" d="M 1276.28125 633.148438 C 1367.03125 633.148438 1440.089844 706.1875 1440.089844 796.914062 L 1440.089844 887.101562 C 1440.089844 977.828125 1367.03125 1050.871094 1276.28125 1050.871094 C 1185.53125 1050.871094 1112.472656 977.828125 1112.472656 887.101562 L 1112.472656 796.914062 C 1112.472656 706.1875 1185.53125 633.148438 1276.28125 633.148438 Z M 1276.28125 633.148438 " fill-opacity="1" fill-rule="nonzero"/><path fill="#006fb1" d="M 515.414062 419.285156 C 515.414062 328.558594 588.472656 255.519531 679.222656 255.519531 L 769.4375 255.519531 C 860.1875 255.519531 933.246094 328.558594 933.246094 419.285156 C 933.246094 510.011719 860.1875 583.050781 769.4375 583.050781 L 679.222656 583.050781 C 588.472656 583.050781 515.414062 510.011719 515.414062 419.285156 Z M 515.414062 419.285156 " fill-opacity="1" fill-rule="nonzero"/><g clip-path="url(#309c2537da)"><path fill="#b6e4ff" d="M 1328.664062 808.902344 C 1328.664062 1068.078125 1205.820312 1278.179688 724.332031 1278.179688 C 283.128906 1278.179688 119.996094 1068.078125 119.996094 808.902344 C 119.996094 549.722656 390.566406 339.621094 724.332031 339.621094 C 1058.09375 339.621094 1328.664062 549.722656 1328.664062 808.902344 Z M 1328.664062 808.902344 " fill-opacity="1" fill-rule="nonzero"/></g><path fill="#000f18" d="M 1208.65625 808.902344 C 1208.65625 970.085938 1110.207031 1100.753906 724.332031 1100.753906 C 370.742188 1100.753906 240.003906 970.085938 240.003906 808.902344 C 240.003906 647.714844 456.84375 517.046875 724.332031 517.046875 C 991.816406 517.046875 1208.65625 647.714844 1208.65625 808.902344 Z M 1208.65625 808.902344 " fill-opacity="1" fill-rule="nonzero"/><path fill="#e0f3ff" d="M 724.332031 502.503906 C 588.21875 502.503906 464.796875 535.570312 374.351562 590.070312 C 283.902344 644.574219 225.457031 721.789062 225.457031 808.902344 C 225.457031 893.425781 260.882812 971.992188 341.335938 1027.257812 C 421.785156 1082.523438 545.746094 1115.300781 724.332031 1115.300781 C 918.910156 1115.300781 1043 1082.683594 1119.738281 1027.042969 C 1196.480469 971.40625 1223.207031 892.457031 1223.207031 808.902344 C 1223.207031 721.789062 1164.761719 644.574219 1074.3125 590.074219 C 983.863281 535.570312 860.445312 502.503906 724.332031 502.503906 Z M 724.332031 531.59375 C 855.703125 531.59375 974.445312 563.859375 1059.289062 614.988281 C 1144.132812 666.113281 1194.105469 734.828125 1194.105469 808.902344 C 1194.105469 886.535156 1171.609375 953.503906 1102.65625 1003.496094 C 1033.703125 1053.488281 915.625 1086.207031 724.332031 1086.207031 C 549.328125 1086.207031 431.125 1053.648438 357.808594 1003.285156 C 284.496094 952.921875 254.554688 885.5625 254.554688 808.902344 C 254.554688 734.828125 304.527344 666.113281 389.371094 614.988281 C 474.214844 563.859375 592.957031 531.59375 724.332031 531.59375 Z M 724.332031 531.59375 " fill-opacity="1" fill-rule="nonzero"/><path fill="#ffbe2f" d="M 597.460938 795.921875 C 597.460938 797.363281 597.4375 798.804688 597.394531 800.242188 C 597.347656 801.683594 597.28125 803.121094 597.191406 804.554688 C 597.105469 805.992188 596.992188 807.421875 596.859375 808.847656 C 596.726562 810.273438 596.574219 811.695312 596.394531 813.109375 C 596.21875 814.523438 596.019531 815.929688 595.800781 817.328125 C 595.578125 818.726562 595.339844 820.113281 595.074219 821.496094 C 594.8125 822.875 594.527344 824.242188 594.222656 825.601562 C 593.917969 826.957031 593.589844 828.304688 593.242188 829.636719 C 592.898438 830.96875 592.53125 832.285156 592.140625 833.589844 C 591.753906 834.890625 591.347656 836.179688 590.917969 837.453125 C 590.492188 838.722656 590.046875 839.976562 589.582031 841.214844 C 589.113281 842.449219 588.628906 843.667969 588.125 844.867188 C 587.621094 846.066406 587.101562 847.246094 586.5625 848.402344 C 586.019531 849.5625 585.464844 850.695312 584.886719 851.8125 C 584.3125 852.925781 583.722656 854.019531 583.113281 855.085938 C 582.503906 856.152344 581.878906 857.199219 581.238281 858.21875 C 580.597656 859.238281 579.941406 860.230469 579.269531 861.199219 C 578.597656 862.167969 577.910156 863.109375 577.210938 864.023438 C 576.511719 864.9375 575.796875 865.824219 575.070312 866.683594 C 574.339844 867.542969 573.601562 868.375 572.847656 869.175781 C 572.09375 869.976562 571.328125 870.746094 570.550781 871.488281 C 569.773438 872.230469 568.984375 872.941406 568.1875 873.621094 C 567.386719 874.296875 566.578125 874.945312 565.757812 875.5625 C 564.9375 876.179688 564.109375 876.765625 563.273438 877.316406 C 562.433594 877.867188 561.589844 878.386719 560.738281 878.871094 C 559.882812 879.359375 559.023438 879.808594 558.152344 880.226562 C 557.285156 880.648438 556.414062 881.03125 555.535156 881.382812 C 554.65625 881.730469 553.773438 882.046875 552.882812 882.328125 C 551.992188 882.609375 551.101562 882.855469 550.203125 883.070312 C 549.308594 883.28125 548.40625 883.457031 547.503906 883.597656 C 546.605469 883.738281 545.699219 883.84375 544.796875 883.914062 C 543.890625 883.988281 542.984375 884.023438 542.078125 884.023438 C 541.171875 884.023438 540.265625 883.988281 539.359375 883.914062 C 538.453125 883.84375 537.550781 883.738281 536.648438 883.597656 C 535.746094 883.457031 534.847656 883.28125 533.953125 883.070312 C 533.054688 882.855469 532.160156 882.609375 531.273438 882.328125 C 530.382812 882.046875 529.5 881.730469 528.621094 881.382812 C 527.742188 881.03125 526.867188 880.648438 526 880.226562 C 525.132812 879.808594 524.273438 879.359375 523.421875 878.871094 C 522.566406 878.386719 521.722656 877.867188 520.882812 877.316406 C 520.046875 876.765625 519.21875 876.179688 518.398438 875.5625 C 517.578125 874.945312 516.769531 874.296875 515.96875 873.621094 C 515.171875 872.941406 514.382812 872.230469 513.605469 871.488281 C 512.828125 870.746094 512.0625 869.976562 511.308594 869.175781 C 510.554688 868.375 509.8125 867.542969 509.085938 866.683594 C 508.359375 865.824219 507.644531 864.9375 506.941406 864.023438 C 506.242188 863.109375 505.554688 862.167969 504.886719 861.199219 C 504.214844 860.230469 503.558594 859.238281 502.917969 858.21875 C 502.277344 857.199219 501.652344 856.152344 501.042969 855.085938 C 500.433594 854.019531 499.839844 852.925781 499.265625 851.8125 C 498.691406 850.695312 498.132812 849.5625 497.59375 848.402344 C 497.054688 847.246094 496.535156 846.066406 496.03125 844.867188 C 495.527344 843.667969 495.042969 842.449219 494.574219 841.214844 C 494.109375 839.976562 493.664062 838.722656 493.234375 837.453125 C 492.808594 836.179688 492.398438 834.890625 492.011719 833.589844 C 491.625 832.285156 491.257812 830.96875 490.910156 829.636719 C 490.566406 828.304688 490.238281 826.957031 489.933594 825.601562 C 489.628906 824.242188 489.34375 822.875 489.078125 821.496094 C 488.816406 820.117188 488.574219 818.726562 488.355469 817.328125 C 488.136719 815.929688 487.9375 814.523438 487.757812 813.109375 C 487.582031 811.695312 487.425781 810.273438 487.292969 808.847656 C 487.160156 807.421875 487.050781 805.992188 486.960938 804.554688 C 486.871094 803.121094 486.804688 801.683594 486.761719 800.242188 C 486.71875 798.804688 486.695312 797.363281 486.695312 795.921875 C 486.695312 794.480469 486.71875 793.039062 486.761719 791.597656 C 486.804688 790.15625 486.871094 788.71875 486.960938 787.285156 C 487.050781 785.851562 487.160156 784.417969 487.292969 782.992188 C 487.429688 781.566406 487.582031 780.148438 487.761719 778.734375 C 487.9375 777.320312 488.136719 775.914062 488.355469 774.515625 C 488.574219 773.117188 488.816406 771.726562 489.078125 770.347656 C 489.34375 768.96875 489.628906 767.597656 489.933594 766.242188 C 490.238281 764.882812 490.566406 763.539062 490.910156 762.207031 C 491.257812 760.875 491.625 759.554688 492.011719 758.253906 C 492.398438 756.949219 492.808594 755.660156 493.234375 754.390625 C 493.660156 753.117188 494.109375 751.863281 494.574219 750.628906 C 495.042969 749.390625 495.527344 748.171875 496.03125 746.972656 C 496.535156 745.777344 497.054688 744.597656 497.59375 743.4375 C 498.136719 742.28125 498.691406 741.144531 499.265625 740.03125 C 499.839844 738.914062 500.433594 737.824219 501.042969 736.753906 C 501.652344 735.6875 502.277344 734.644531 502.917969 733.625 C 503.558594 732.605469 504.214844 731.609375 504.886719 730.640625 C 505.554688 729.671875 506.242188 728.734375 506.941406 727.816406 C 507.644531 726.902344 508.359375 726.015625 509.085938 725.15625 C 509.8125 724.296875 510.554688 723.46875 511.308594 722.667969 C 512.0625 721.867188 512.828125 721.09375 513.605469 720.355469 C 514.382812 719.613281 515.171875 718.902344 515.96875 718.222656 C 516.769531 717.542969 517.578125 716.894531 518.398438 716.277344 C 519.21875 715.660156 520.046875 715.078125 520.882812 714.527344 C 521.722656 713.972656 522.566406 713.457031 523.421875 712.96875 C 524.273438 712.484375 525.132812 712.03125 526 711.613281 C 526.867188 711.195312 527.742188 710.808594 528.621094 710.460938 C 529.5 710.109375 530.382812 709.792969 531.273438 709.511719 C 532.160156 709.230469 533.054688 708.984375 533.953125 708.773438 C 534.847656 708.5625 535.746094 708.386719 536.648438 708.242188 C 537.550781 708.101562 538.453125 707.996094 539.359375 707.925781 C 540.265625 707.855469 541.171875 707.820312 542.078125 707.820312 C 542.984375 707.820312 543.890625 707.855469 544.796875 707.925781 C 545.699219 707.996094 546.601562 708.101562 547.503906 708.242188 C 548.40625 708.386719 549.304688 708.5625 550.203125 708.773438 C 551.101562 708.984375 551.992188 709.230469 552.882812 709.511719 C 553.773438 709.792969 554.65625 710.109375 555.535156 710.460938 C 556.414062 710.808594 557.285156 711.195312 558.152344 711.613281 C 559.023438 712.03125 559.882812 712.484375 560.738281 712.96875 C 561.589844 713.457031 562.433594 713.972656 563.273438 714.527344 C 564.109375 715.078125 564.9375 715.660156 565.757812 716.277344 C 566.578125 716.894531 567.386719 717.542969 568.1875 718.222656 C 568.984375 718.902344 569.773438 719.613281 570.550781 720.355469 C 571.328125 721.09375 572.09375 721.867188 572.847656 722.667969 C 573.601562 723.46875 574.339844 724.296875 575.070312 725.15625 C 575.796875 726.015625 576.507812 726.902344 577.210938 727.816406 C 577.910156 728.734375 578.597656 729.671875 579.269531 730.640625 C 579.941406 731.609375 580.597656 732.605469 581.238281 733.625 C 581.878906 734.644531 582.503906 735.6875 583.113281 736.753906 C 583.722656 737.824219 584.3125 738.914062 584.886719 740.03125 C 585.464844 741.144531 586.019531 742.28125 586.5625 743.4375 C 587.101562 744.597656 587.621094 745.777344 588.125 746.972656 C 588.628906 748.171875 589.113281 749.390625 589.582031 750.628906 C 590.046875 751.863281 590.492188 753.117188 590.917969 754.390625 C 591.347656 755.660156 591.753906 756.949219 592.140625 758.253906 C 592.53125 759.554688 592.898438 760.875 593.242188 762.207031 C 593.589844 763.539062 593.917969 764.882812 594.222656 766.238281 C 594.527344 767.597656 594.8125 768.964844 595.074219 770.347656 C 595.339844 771.726562 595.578125 773.117188 595.800781 774.515625 C 596.019531 775.914062 596.21875 777.320312 596.394531 778.734375 C 596.574219 780.148438 596.726562 781.566406 596.859375 782.992188 C 596.992188 784.417969 597.105469 785.851562 597.191406 787.285156 C 597.28125 788.71875 597.347656 790.15625 597.394531 791.597656 C 597.4375 793.039062 597.460938 794.480469 597.460938 795.921875 Z M 597.460938 795.921875 " fill-opacity="1" fill-rule="nonzero"/><path fill="#ffbe2f" d="M 953.394531 795.921875 C 953.394531 797.363281 953.371094 798.804688 953.328125 800.242188 C 953.28125 801.683594 953.214844 803.121094 953.125 804.554688 C 953.039062 805.992188 952.925781 807.421875 952.792969 808.847656 C 952.664062 810.273438 952.507812 811.695312 952.332031 813.109375 C 952.152344 814.523438 951.957031 815.929688 951.734375 817.328125 C 951.515625 818.726562 951.273438 820.113281 951.007812 821.496094 C 950.746094 822.875 950.460938 824.242188 950.15625 825.601562 C 949.851562 826.957031 949.523438 828.304688 949.179688 829.636719 C 948.832031 830.96875 948.464844 832.285156 948.074219 833.589844 C 947.6875 834.890625 947.28125 836.179688 946.855469 837.453125 C 946.425781 838.722656 945.980469 839.976562 945.515625 841.214844 C 945.046875 842.449219 944.5625 843.667969 944.058594 844.867188 C 943.558594 846.066406 943.035156 847.246094 942.496094 848.402344 C 941.957031 849.5625 941.398438 850.695312 940.824219 851.8125 C 940.246094 852.925781 939.65625 854.019531 939.046875 855.085938 C 938.4375 856.152344 937.8125 857.199219 937.171875 858.21875 C 936.53125 859.238281 935.875 860.230469 935.203125 861.199219 C 934.535156 862.167969 933.847656 863.109375 933.144531 864.023438 C 932.445312 864.9375 931.730469 865.824219 931.003906 866.683594 C 930.277344 867.542969 929.535156 868.375 928.78125 869.175781 C 928.027344 869.976562 927.261719 870.746094 926.484375 871.488281 C 925.707031 872.230469 924.917969 872.941406 924.117188 873.621094 C 923.320312 874.296875 922.511719 874.945312 921.691406 875.5625 C 920.871094 876.179688 920.042969 876.765625 919.207031 877.316406 C 918.371094 877.867188 917.523438 878.386719 916.671875 878.871094 C 915.816406 879.359375 914.957031 879.808594 914.085938 880.226562 C 913.222656 880.648438 912.347656 881.03125 911.46875 881.382812 C 910.589844 881.730469 909.707031 882.046875 908.816406 882.328125 C 907.929688 882.609375 907.035156 882.855469 906.136719 883.070312 C 905.242188 883.28125 904.339844 883.457031 903.441406 883.597656 C 902.539062 883.738281 901.632812 883.84375 900.730469 883.914062 C 899.824219 883.988281 898.917969 884.023438 898.011719 884.023438 C 897.105469 884.023438 896.199219 883.988281 895.292969 883.914062 C 894.386719 883.84375 893.484375 883.738281 892.582031 883.597656 C 891.679688 883.457031 890.78125 883.28125 889.882812 883.070312 C 888.988281 882.855469 888.097656 882.609375 887.207031 882.328125 C 886.316406 882.046875 885.433594 881.730469 884.554688 881.382812 C 883.675781 881.03125 882.804688 880.648438 881.933594 880.226562 C 881.066406 879.808594 880.207031 879.359375 879.355469 878.871094 C 878.5 878.386719 877.65625 877.867188 876.820312 877.316406 C 875.980469 876.765625 875.152344 876.179688 874.332031 875.5625 C 873.515625 874.945312 872.707031 874.296875 871.90625 873.621094 C 871.105469 872.941406 870.316406 872.230469 869.539062 871.488281 C 868.761719 870.746094 868 869.976562 867.242188 869.175781 C 866.488281 868.375 865.75 867.542969 865.023438 866.683594 C 864.292969 865.824219 863.578125 864.9375 862.875 864.023438 C 862.175781 863.109375 861.488281 862.167969 860.820312 861.199219 C 860.148438 860.230469 859.492188 859.238281 858.851562 858.21875 C 858.210938 857.199219 857.585938 856.152344 856.976562 855.085938 C 856.367188 854.019531 855.773438 852.925781 855.199219 851.8125 C 854.625 850.695312 854.070312 849.5625 853.527344 848.402344 C 852.988281 847.246094 852.46875 846.066406 851.964844 844.867188 C 851.460938 843.667969 850.976562 842.449219 850.507812 841.214844 C 850.042969 839.976562 849.597656 838.722656 849.167969 837.453125 C 848.742188 836.179688 848.335938 834.890625 847.949219 833.589844 C 847.558594 832.285156 847.191406 830.96875 846.847656 829.636719 C 846.5 828.304688 846.171875 826.957031 845.867188 825.601562 C 845.5625 824.242188 845.277344 822.875 845.011719 821.496094 C 844.75 820.117188 844.507812 818.726562 844.289062 817.328125 C 844.070312 815.929688 843.871094 814.523438 843.695312 813.109375 C 843.515625 811.695312 843.363281 810.273438 843.226562 808.847656 C 843.09375 807.421875 842.984375 805.992188 842.894531 804.554688 C 842.804688 803.121094 842.738281 801.683594 842.695312 800.242188 C 842.652344 798.804688 842.628906 797.363281 842.628906 795.921875 C 842.628906 794.480469 842.652344 793.039062 842.695312 791.597656 C 842.738281 790.15625 842.804688 788.71875 842.894531 787.285156 C 842.984375 785.851562 843.09375 784.417969 843.226562 782.992188 C 843.359375 781.566406 843.515625 780.148438 843.691406 778.734375 C 843.871094 777.320312 844.066406 775.914062 844.289062 774.515625 C 844.507812 773.117188 844.75 771.726562 845.011719 770.347656 C 845.277344 768.96875 845.558594 767.597656 845.867188 766.242188 C 846.171875 764.882812 846.496094 763.539062 846.84375 762.207031 C 847.191406 760.875 847.558594 759.554688 847.945312 758.253906 C 848.332031 756.949219 848.738281 755.660156 849.167969 754.390625 C 849.59375 753.117188 850.039062 751.863281 850.507812 750.628906 C 850.972656 749.390625 851.460938 748.171875 851.960938 746.972656 C 852.464844 745.777344 852.988281 744.597656 853.527344 743.4375 C 854.066406 742.28125 854.621094 741.144531 855.199219 740.03125 C 855.773438 738.914062 856.367188 737.824219 856.976562 736.753906 C 857.585938 735.6875 858.210938 734.644531 858.851562 733.625 C 859.492188 732.605469 860.148438 731.609375 860.820312 730.640625 C 861.488281 729.671875 862.175781 728.734375 862.875 727.816406 C 863.578125 726.902344 864.292969 726.015625 865.019531 725.15625 C 865.75 724.296875 866.488281 723.46875 867.242188 722.667969 C 867.996094 721.867188 868.761719 721.09375 869.539062 720.355469 C 870.316406 719.613281 871.105469 718.902344 871.902344 718.222656 C 872.703125 717.542969 873.511719 716.894531 874.332031 716.277344 C 875.152344 715.660156 875.980469 715.078125 876.816406 714.527344 C 877.65625 713.972656 878.5 713.457031 879.351562 712.96875 C 880.207031 712.484375 881.066406 712.03125 881.933594 711.613281 C 882.800781 711.195312 883.675781 710.808594 884.554688 710.460938 C 885.433594 710.109375 886.316406 709.792969 887.207031 709.511719 C 888.097656 709.230469 888.988281 708.984375 889.886719 708.773438 C 890.78125 708.5625 891.679688 708.386719 892.582031 708.242188 C 893.484375 708.101562 894.386719 707.996094 895.292969 707.925781 C 896.199219 707.855469 897.105469 707.820312 898.011719 707.820312 C 898.917969 707.820312 899.824219 707.855469 900.730469 707.925781 C 901.632812 707.996094 902.539062 708.101562 903.4375 708.242188 C 904.339844 708.386719 905.242188 708.5625 906.136719 708.773438 C 907.035156 708.984375 907.929688 709.230469 908.816406 709.511719 C 909.707031 709.792969 910.589844 710.109375 911.46875 710.460938 C 912.347656 710.808594 913.222656 711.195312 914.085938 711.613281 C 914.957031 712.03125 915.816406 712.484375 916.671875 712.96875 C 917.523438 713.457031 918.371094 713.972656 919.207031 714.527344 C 920.042969 715.078125 920.871094 715.660156 921.691406 716.277344 C 922.511719 716.894531 923.320312 717.542969 924.117188 718.222656 C 924.917969 718.902344 925.707031 719.613281 926.484375 720.355469 C 927.261719 721.09375 928.027344 721.867188 928.78125 722.667969 C 929.535156 723.46875 930.273438 724.296875 931.003906 725.15625 C 931.730469 726.015625 932.445312 726.902344 933.144531 727.816406 C 933.847656 728.734375 934.53125 729.671875 935.203125 730.640625 C 935.875 731.609375 936.53125 732.605469 937.171875 733.625 C 937.8125 734.644531 938.4375 735.6875 939.046875 736.753906 C 939.65625 737.824219 940.246094 738.914062 940.824219 740.03125 C 941.398438 741.144531 941.957031 742.28125 942.496094 743.4375 C 943.035156 744.597656 943.558594 745.777344 944.058594 746.972656 C 944.5625 748.171875 945.046875 749.390625 945.515625 750.628906 C 945.980469 751.863281 946.425781 753.117188 946.851562 754.390625 C 947.28125 755.660156 947.6875 756.949219 948.074219 758.253906 C 948.464844 759.554688 948.832031 760.875 949.179688 762.207031 C 949.523438 763.539062 949.851562 764.882812 950.15625 766.238281 C 950.460938 767.597656 950.746094 768.964844 951.007812 770.347656 C 951.273438 771.726562 951.515625 773.117188 951.734375 774.515625 C 951.957031 775.914062 952.152344 777.320312 952.332031 778.734375 C 952.507812 780.148438 952.664062 781.566406 952.792969 782.992188 C 952.925781 784.417969 953.039062 785.851562 953.125 787.285156 C 953.214844 788.71875 953.28125 790.15625 953.328125 791.597656 C 953.371094 793.039062 953.394531 794.480469 953.394531 795.921875 Z M 953.394531 795.921875 " fill-opacity="1" fill-rule="nonzero"/><path fill="#006fb1" d="M 720.722656 162.128906 C 595.511719 162.796875 470.484375 198.164062 360.714844 268.152344 C 141.179688 408.125 21.496094 661.816406 53.097656 920.207031 C 53.179688 920.890625 53.296875 921.566406 53.449219 922.238281 C 53.597656 922.90625 53.78125 923.570312 53.996094 924.222656 C 54.210938 924.875 54.457031 925.515625 54.734375 926.144531 C 55.011719 926.773438 55.320312 927.386719 55.660156 927.984375 C 55.996094 928.585938 56.363281 929.164062 56.757812 929.726562 C 57.15625 930.289062 57.578125 930.832031 58.027344 931.351562 C 58.476562 931.875 58.949219 932.371094 59.445312 932.847656 C 59.941406 933.320312 60.460938 933.769531 61.003906 934.191406 C 61.546875 934.617188 62.105469 935.011719 62.6875 935.382812 C 63.269531 935.75 63.863281 936.089844 64.480469 936.398438 C 65.09375 936.707031 65.71875 936.988281 66.359375 937.234375 C 67 937.484375 67.652344 937.699219 68.316406 937.882812 C 68.980469 938.070312 69.648438 938.21875 70.328125 938.339844 C 71.003906 938.457031 71.683594 938.542969 72.371094 938.59375 C 73.058594 938.644531 73.742188 938.664062 74.429688 938.644531 C 75.117188 938.628906 75.804688 938.582031 76.488281 938.496094 C 77.167969 938.414062 77.847656 938.296875 78.515625 938.148438 C 79.1875 937.996094 79.851562 937.816406 80.503906 937.601562 C 81.15625 937.386719 81.796875 937.140625 82.425781 936.859375 C 83.054688 936.582031 83.671875 936.273438 84.269531 935.9375 C 84.867188 935.597656 85.445312 935.230469 86.011719 934.835938 C 86.574219 934.441406 87.113281 934.019531 87.636719 933.570312 C 88.15625 933.121094 88.65625 932.648438 89.132812 932.152344 C 89.605469 931.652344 90.054688 931.132812 90.480469 930.59375 C 90.902344 930.050781 91.296875 929.492188 91.667969 928.910156 C 92.035156 928.328125 92.375 927.730469 92.683594 927.117188 C 92.996094 926.503906 93.273438 925.878906 93.523438 925.234375 C 93.769531 924.59375 93.988281 923.941406 94.171875 923.28125 C 94.355469 922.617188 94.503906 921.949219 94.625 921.269531 C 94.742188 920.59375 94.828125 919.910156 94.878906 919.226562 C 94.929688 918.539062 94.945312 917.851562 94.929688 917.164062 C 94.914062 916.480469 94.863281 915.792969 94.78125 915.109375 C 65.132812 672.675781 177.316406 434.878906 383.300781 303.550781 C 589.28125 172.21875 852.265625 170.8125 1059.636719 299.9375 C 1267.011719 429.0625 1381.726562 665.652344 1354.664062 908.390625 C 1354.589844 909.074219 1354.546875 909.757812 1354.535156 910.445312 C 1354.527344 911.132812 1354.554688 911.820312 1354.613281 912.503906 C 1354.671875 913.191406 1354.761719 913.871094 1354.886719 914.546875 C 1355.011719 915.222656 1355.171875 915.890625 1355.363281 916.550781 C 1355.554688 917.210938 1355.777344 917.859375 1356.03125 918.5 C 1356.289062 919.136719 1356.574219 919.761719 1356.890625 920.371094 C 1357.207031 920.980469 1357.550781 921.574219 1357.925781 922.152344 C 1358.300781 922.726562 1358.703125 923.285156 1359.132812 923.820312 C 1359.5625 924.359375 1360.015625 924.875 1360.496094 925.367188 C 1360.976562 925.859375 1361.480469 926.324219 1362.003906 926.769531 C 1362.53125 927.210938 1363.078125 927.628906 1363.644531 928.015625 C 1364.210938 928.40625 1364.796875 928.765625 1365.398438 929.097656 C 1366 929.429688 1366.617188 929.730469 1367.25 930.003906 C 1367.882812 930.273438 1368.527344 930.511719 1369.183594 930.71875 C 1369.835938 930.929688 1370.5 931.105469 1371.175781 931.246094 C 1371.84375 931.390625 1372.523438 931.5 1373.207031 931.574219 C 1373.890625 931.652344 1374.578125 931.695312 1375.265625 931.703125 C 1375.953125 931.710938 1376.636719 931.6875 1377.324219 931.628906 C 1378.007812 931.570312 1378.691406 931.476562 1379.367188 931.351562 C 1380.042969 931.226562 1380.710938 931.066406 1381.371094 930.875 C 1382.03125 930.6875 1382.679688 930.460938 1383.320312 930.207031 C 1383.957031 929.953125 1384.582031 929.667969 1385.195312 929.351562 C 1385.804688 929.035156 1386.398438 928.6875 1386.972656 928.316406 C 1387.550781 927.941406 1388.109375 927.539062 1388.644531 927.109375 C 1389.183594 926.679688 1389.695312 926.226562 1390.191406 925.746094 C 1390.679688 925.265625 1391.148438 924.761719 1391.589844 924.238281 C 1392.035156 923.710938 1392.453125 923.164062 1392.839844 922.597656 C 1393.230469 922.03125 1393.59375 921.445312 1393.925781 920.84375 C 1394.253906 920.242188 1394.558594 919.625 1394.828125 918.992188 C 1395.101562 918.363281 1395.339844 917.71875 1395.546875 917.0625 C 1395.753906 916.40625 1395.929688 915.742188 1396.074219 915.070312 C 1396.21875 914.398438 1396.328125 913.71875 1396.402344 913.035156 C 1425.246094 654.324219 1302.859375 401.925781 1081.839844 264.304688 C 971.328125 195.492188 845.933594 161.460938 720.722656 162.128906 Z M 720.722656 162.128906 " fill-opacity="1" fill-rule="nonzero"/><path fill="#006fb1" d="M 77.566406 753.578125 C 76.886719 753.460938 76.207031 753.375 75.519531 753.324219 C 74.835938 753.269531 74.148438 753.253906 73.460938 753.269531 C 72.773438 753.285156 72.089844 753.332031 71.40625 753.417969 C 70.726562 753.5 70.046875 753.617188 69.375 753.765625 C 68.703125 753.914062 68.042969 754.097656 67.386719 754.3125 C 66.734375 754.527344 66.09375 754.773438 65.464844 755.050781 C 64.835938 755.328125 64.222656 755.632812 63.621094 755.972656 C 63.023438 756.308594 62.441406 756.675781 61.878906 757.070312 C 61.316406 757.464844 60.773438 757.886719 60.253906 758.335938 C 59.730469 758.785156 59.234375 759.257812 58.757812 759.753906 C 58.28125 760.25 57.832031 760.769531 57.410156 761.308594 C 56.984375 761.851562 56.589844 762.414062 56.222656 762.992188 C 55.851562 763.574219 55.511719 764.167969 55.203125 764.78125 C 54.890625 765.398438 54.613281 766.023438 54.363281 766.664062 C 54.113281 767.304688 53.898438 767.957031 53.714844 768.621094 C 53.527344 769.28125 53.375 769.953125 53.257812 770.628906 C 53.257812 770.628906 33.496094 884.761719 110.175781 996.949219 C 186.855469 1109.136719 358.089844 1216.945312 724.332031 1216.945312 C 725.019531 1216.945312 725.703125 1216.910156 726.390625 1216.84375 C 727.074219 1216.777344 727.753906 1216.675781 728.429688 1216.542969 C 729.101562 1216.410156 729.769531 1216.242188 730.425781 1216.042969 C 731.085938 1215.84375 731.734375 1215.609375 732.367188 1215.347656 C 733.003906 1215.085938 733.625 1214.792969 734.230469 1214.46875 C 734.835938 1214.144531 735.425781 1213.789062 735.996094 1213.410156 C 736.566406 1213.027344 737.117188 1212.617188 737.652344 1212.179688 C 738.183594 1211.746094 738.691406 1211.285156 739.175781 1210.796875 C 739.664062 1210.3125 740.125 1209.804688 740.5625 1209.269531 C 740.996094 1208.738281 741.40625 1208.1875 741.789062 1207.617188 C 742.171875 1207.046875 742.523438 1206.457031 742.847656 1205.851562 C 743.171875 1205.242188 743.464844 1204.621094 743.730469 1203.988281 C 743.992188 1203.351562 744.222656 1202.707031 744.421875 1202.046875 C 744.621094 1201.390625 744.789062 1200.722656 744.925781 1200.050781 C 745.058594 1199.375 745.160156 1198.695312 745.226562 1198.011719 C 745.292969 1197.328125 745.328125 1196.640625 745.328125 1195.953125 C 745.328125 1195.265625 745.292969 1194.582031 745.226562 1193.898438 C 745.160156 1193.214844 745.058594 1192.535156 744.925781 1191.859375 C 744.789062 1191.183594 744.625 1190.519531 744.425781 1189.859375 C 744.226562 1189.203125 743.992188 1188.554688 743.730469 1187.921875 C 743.46875 1187.285156 743.175781 1186.664062 742.847656 1186.058594 C 742.523438 1185.453125 742.171875 1184.863281 741.789062 1184.292969 C 741.410156 1183.71875 741 1183.167969 740.5625 1182.636719 C 740.128906 1182.105469 739.667969 1181.597656 739.179688 1181.109375 C 738.695312 1180.625 738.1875 1180.164062 737.65625 1179.726562 C 737.125 1179.289062 736.570312 1178.882812 736 1178.5 C 735.425781 1178.117188 734.835938 1177.765625 734.230469 1177.441406 C 733.625 1177.117188 733.003906 1176.820312 732.367188 1176.558594 C 731.734375 1176.296875 731.085938 1176.0625 730.429688 1175.863281 C 729.769531 1175.664062 729.101562 1175.5 728.429688 1175.363281 C 727.753906 1175.230469 727.074219 1175.128906 726.390625 1175.0625 C 725.707031 1174.996094 725.019531 1174.960938 724.332031 1174.960938 C 366.242188 1174.960938 212.28125 1071.921875 144.847656 973.261719 C 77.414062 874.601562 94.625 777.878906 94.625 777.878906 C 94.742188 777.203125 94.828125 776.519531 94.878906 775.835938 C 94.929688 775.148438 94.949219 774.464844 94.933594 773.777344 C 94.917969 773.089844 94.867188 772.402344 94.785156 771.722656 C 94.703125 771.039062 94.585938 770.363281 94.4375 769.691406 C 94.289062 769.019531 94.105469 768.359375 93.890625 767.703125 C 93.675781 767.050781 93.429688 766.410156 93.152344 765.78125 C 92.875 765.152344 92.566406 764.539062 92.226562 763.941406 C 91.890625 763.339844 91.523438 762.761719 91.128906 762.195312 C 90.730469 761.632812 90.3125 761.09375 89.863281 760.570312 C 89.414062 760.050781 88.941406 759.550781 88.445312 759.078125 C 87.945312 758.601562 87.425781 758.152344 86.886719 757.726562 C 86.34375 757.304688 85.785156 756.90625 85.203125 756.539062 C 84.625 756.171875 84.027344 755.832031 83.414062 755.519531 C 82.800781 755.210938 82.171875 754.929688 81.53125 754.683594 C 80.890625 754.433594 80.238281 754.21875 79.574219 754.03125 C 78.914062 753.847656 78.242188 753.695312 77.566406 753.578125 Z M 77.566406 753.578125 " fill-opacity="1" fill-rule="nonzero"/><path fill="#006fb1" d="M 663.246094 1137.921875 L 785.417969 1137.921875 C 815.785156 1137.921875 840.230469 1162.359375 840.230469 1192.71875 C 840.230469 1223.074219 815.785156 1247.515625 785.417969 1247.515625 L 663.246094 1247.515625 C 632.878906 1247.515625 608.433594 1223.074219 608.433594 1192.71875 C 608.433594 1162.359375 632.878906 1137.921875 663.246094 1137.921875 Z M 663.246094 1137.921875 " fill-opacity="1" fill-rule="nonzero"/><path fill="#ffbe2f" d="M 665.429688 934.667969 C 663.828125 935.019531 662.351562 935.667969 661.003906 936.609375 C 659.65625 937.546875 658.539062 938.710938 657.652344 940.097656 C 657.214844 940.78125 656.847656 941.503906 656.550781 942.261719 C 656.253906 943.019531 656.035156 943.796875 655.894531 944.597656 C 655.75 945.398438 655.6875 946.207031 655.703125 947.019531 C 655.722656 947.832031 655.816406 948.636719 655.992188 949.433594 C 656.167969 950.226562 656.417969 950.996094 656.742188 951.742188 C 657.070312 952.488281 657.46875 953.191406 657.933594 953.859375 C 658.398438 954.527344 658.925781 955.144531 659.511719 955.707031 C 660.097656 956.269531 660.734375 956.769531 661.421875 957.207031 C 661.421875 957.207031 719.578125 993.390625 786.410156 957.695312 C 787.125 957.3125 787.796875 956.863281 788.425781 956.34375 C 789.054688 955.828125 789.628906 955.257812 790.144531 954.628906 C 790.660156 954 791.109375 953.328125 791.492188 952.609375 C 791.875 951.890625 792.1875 951.144531 792.421875 950.367188 C 792.660156 949.585938 792.816406 948.792969 792.898438 947.984375 C 792.976562 947.175781 792.976562 946.363281 792.898438 945.554688 C 792.820312 944.746094 792.660156 943.953125 792.425781 943.171875 C 792.1875 942.394531 791.878906 941.648438 791.496094 940.929688 C 791.113281 940.210938 790.664062 939.539062 790.148438 938.910156 C 789.632812 938.28125 789.058594 937.710938 788.429688 937.195312 C 787.800781 936.679688 787.125 936.226562 786.410156 935.84375 C 785.691406 935.460938 784.941406 935.152344 784.164062 934.914062 C 783.386719 934.679688 782.59375 934.519531 781.785156 934.441406 C 780.972656 934.359375 780.164062 934.359375 779.355469 934.441406 C 778.542969 934.519531 777.75 934.679688 776.972656 934.914062 C 776.191406 935.148438 775.445312 935.460938 774.726562 935.84375 C 719.015625 965.601562 674.769531 936.328125 674.769531 936.328125 C 673.382812 935.445312 671.882812 934.859375 670.265625 934.570312 C 668.648438 934.28125 667.035156 934.316406 665.429688 934.667969 Z M 665.429688 934.667969 " fill-opacity="1" fill-rule="nonzero"/></svg>